<?xml version="1.0" encoding="UTF-8"?>
<!DOCTYPE svg PUBLIC "-//W3C//DTD SVG 1.1//EN" "http://www.w3.org/Graphics/SVG/1.1/DTD/svg11.dtd">
<!-- Creator: CorelDRAW 2019 -->
<svg xmlns="http://www.w3.org/2000/svg" xml:space="preserve" width="185px" height="188px" version="1.1" style="shape-rendering:geometricPrecision; text-rendering:geometricPrecision; image-rendering:optimizeQuality; fill-rule:evenodd; clip-rule:evenodd"
viewBox="0 0 2.93 2.98"
 xmlns:xlink="http://www.w3.org/1999/xlink">
 <defs>
  <style type="text/css">
   <![CDATA[
    .fil1 {fill:#134544}
    .fil0 {fill:#28918A}
   ]]>
  </style>
 </defs>
 <g id="Layer_x0020_1">
  <metadata id="CorelCorpID_0Corel-Layer"/>
  <path class="fil0" d="M2.45 1.74c-0.13,-0.06 -0.28,-0.08 -0.45,-0.08 -0.22,0 -0.42,0.04 -0.59,0.12l0.02 0c0.33,0 0.63,0.11 0.87,0.28 0.07,-0.09 0.12,-0.2 0.15,-0.32z"/>
  <path class="fil1" d="M1.49 0c0.67,0 1.23,0.44 1.42,1.04l0 0 0.01 0.01 0 0 0 0.02 0 0.01 0 0c0.01,0.01 0.01,0.02 0.01,0.03l-0.01 0c-0.29,0 -0.47,-0.05 -0.57,-0.11 -0.01,-0.03 -0.03,-0.06 -0.05,-0.08l0 0 0 0 0 0 -0.01 -0.01 0 0 0 -0.01 0 0 -0.01 -0.01 0 0 0 0 0 0 0 0 0 -0.01 0 0 -0.01 0 0 0 0 -0.01 0 0 0 0 0 0 -0.01 -0.01 0 0 0 0 -0.01 -0.01 0 0 0 0 0 0 -0.01 -0.01 0 0c-0.18,-0.21 -0.45,-0.34 -0.75,-0.34 -0.55,0 -0.99,0.44 -0.99,0.99 0,0.55 0.44,0.99 0.99,0.99 0.46,0 0.85,-0.31 0.96,-0.74 0,0 0.28,0.13 0.41,0.22 0,0 0.04,0.01 0.04,0.11l0 -0.01 0 0.01 0 0.73 -0.15 0c-0.14,0 -0.23,-0.07 -0.27,-0.2 -0.26,0.24 -0.61,0.38 -0.99,0.38 -0.82,0 -1.49,-0.66 -1.49,-1.49 0,-0.82 0.67,-1.49 1.49,-1.49z"/>
 </g>
</svg>
