<?xml version="1.0" encoding="UTF-8"?>
<!DOCTYPE svg PUBLIC "-//W3C//DTD SVG 1.1//EN" "http://www.w3.org/Graphics/SVG/1.1/DTD/svg11.dtd">
<!-- Creator: CorelDRAW 2019 -->
<svg xmlns="http://www.w3.org/2000/svg" xml:space="preserve" width="1145px" height="265px" version="1.1" style="shape-rendering:geometricPrecision; text-rendering:geometricPrecision; image-rendering:optimizeQuality; fill-rule:evenodd; clip-rule:evenodd"
viewBox="0 0 112.48 26"
 xmlns:xlink="http://www.w3.org/1999/xlink">
 <defs>
  <style type="text/css">
   <![CDATA[
    .fil1 {fill:#134544}
    .fil0 {fill:#28918A}
    .fil2 {fill:#134544;fill-rule:nonzero}
    .fil3 {fill:#28918A;fill-rule:nonzero}
   ]]>
  </style>
 </defs>
 <g id="Layer_x0020_1">
  <metadata id="CorelCorpID_0Corel-Layer"/>
  <path class="fil0" d="M15.18 10.77c-0.85,-0.34 -1.78,-0.51 -2.78,-0.51 -1.4,0 -2.63,0.25 -3.7,0.77l0.15 -0.01c2.02,0 3.88,0.65 5.4,1.75 0.42,-0.6 0.74,-1.27 0.93,-2z"/>
  <path class="fil1" d="M9.23 0c4.12,0 7.61,2.7 8.8,6.42l0 0 0.01 0.05 0 0.01 0.05 0.17 0.01 0.01 0 0c0.02,0.07 0.04,0.15 0.06,0.23l-0.06 0c-1.85,0 -2.92,-0.35 -3.53,-0.71 -0.1,-0.17 -0.21,-0.34 -0.32,-0.5l0 0 0 0 -0.02 -0.01 -0.04 -0.06 0 0 -0.03 -0.05 -0.01 -0.01 -0.01 -0.01 0 -0.01 -0.02 -0.01 -0.01 -0.02 -0.01 -0.01 -0.01 -0.02 -0.01 -0.01 -0.01 -0.02 -0.01 -0.01 -0.02 -0.02 -0.01 -0.01 0 -0.01 -0.01 -0.01 -0.05 -0.05 0 -0.01 -0.01 -0.01 -0.03 -0.04 -0.02 -0.02 0 0 0 0 -0.02 -0.02 -0.01 -0.02c-1.13,-1.3 -2.79,-2.12 -4.65,-2.12 -3.39,0 -6.14,2.75 -6.14,6.14 0,3.39 2.75,6.14 6.14,6.14 2.86,0 5.27,-1.95 5.95,-4.6 0,0 1.73,0.78 2.51,1.35 0,0 0.27,0.1 0.23,0.68l0 -0.03 0 0.05 0 4.48 -0.91 0c-0.84,0 -1.38,-0.39 -1.63,-1.18 -1.64,1.45 -3.79,2.34 -6.15,2.34 -5.1,0 -9.23,-4.13 -9.23,-9.23 0,-5.1 4.13,-9.23 9.23,-9.23z"/>
  <path class="fil2" d="M28.26 13.37l2.55 0c-0.37,1.43 -1.08,2.52 -2.14,3.26 -1.05,0.79 -2.38,1.18 -3.97,1.18 -1.94,0 -3.46,-0.63 -4.55,-1.89 -1.09,-1.22 -1.63,-2.97 -1.63,-5.25 0,-2.18 0.52,-3.88 1.58,-5.1 1.09,-1.26 2.61,-1.89 4.54,-1.89 2.04,0 3.62,0.61 4.75,1.83 1.09,1.26 1.63,3.01 1.63,5.25 0,0.13 0,0.25 0,0.35 0,0.11 0,0.17 0,0.21 0,0.17 -0.02,0.28 -0.05,0.35l-8.82 0c0.03,1.06 0.28,1.85 0.76,2.37 0.44,0.54 1.11,0.82 1.99,0.82 0.58,0 1.07,-0.12 1.48,-0.36 0.1,-0.03 0.2,-0.09 0.28,-0.18 0.09,-0.08 0.18,-0.18 0.28,-0.28 0.03,-0.1 0.16,-0.24 0.38,-0.41 0.22,-0.17 0.54,-0.26 0.94,-0.26zm-6.11 -4l5.2 0c-0.07,-0.91 -0.31,-1.59 -0.72,-2.03 -0.44,-0.47 -1.07,-0.71 -1.88,-0.71 -0.75,0 -1.36,0.24 -1.84,0.71 -0.48,0.48 -0.73,1.16 -0.76,2.03z"/>
  <path id="1" class="fil2" d="M41.02 13.37l2.55 0c-0.38,1.43 -1.09,2.52 -2.15,3.26 -1.05,0.79 -2.38,1.18 -3.97,1.18 -1.94,0 -3.46,-0.63 -4.55,-1.89 -1.09,-1.22 -1.63,-2.97 -1.63,-5.25 0,-2.18 0.52,-3.88 1.58,-5.1 1.09,-1.26 2.61,-1.89 4.54,-1.89 2.05,0 3.63,0.61 4.75,1.83 1.09,1.26 1.63,3.01 1.63,5.25 0,0.13 0,0.25 0,0.35 0,0.11 0,0.17 0,0.21 0,0.17 -0.02,0.28 -0.05,0.35l-8.82 0c0.03,1.06 0.28,1.85 0.76,2.37 0.44,0.54 1.11,0.82 1.99,0.82 0.58,0 1.07,-0.12 1.48,-0.36 0.1,-0.03 0.2,-0.09 0.28,-0.18 0.09,-0.08 0.18,-0.18 0.28,-0.28 0.03,-0.1 0.16,-0.24 0.38,-0.41 0.22,-0.17 0.54,-0.26 0.95,-0.26zm-6.12 -4l5.2 0c-0.07,-0.91 -0.31,-1.59 -0.72,-2.03 -0.44,-0.47 -1.07,-0.71 -1.88,-0.71 -0.75,0 -1.36,0.24 -1.84,0.71 -0.48,0.48 -0.73,1.16 -0.76,2.03z"/>
  <path id="2" class="fil2" d="M53.31 16.74l0 -0.87c-0.61,0.95 -1.44,1.55 -2.47,1.79 -1.04,0.23 -2.07,0.15 -3.09,-0.26 -1.02,-0.41 -1.9,-1.16 -2.63,-2.27 -0.74,-1.1 -1.1,-2.56 -1.1,-4.36 0,-2.11 0.48,-3.82 1.45,-5.13 0.97,-1.31 2.53,-1.96 4.68,-1.96 1.63,0 3.15,0.45 4.54,1.33 1.4,0.88 2.1,2.51 2.1,4.9l0 7.18c0,2.39 -0.7,4.01 -2.1,4.87 -1.39,0.87 -2.91,1.31 -4.54,1.31 -3.12,0 -5.07,-1.47 -5.81,-4.39l3.72 0c0.27,0.47 0.69,0.84 1.25,1.1 0.56,0.25 1.12,0.32 1.68,0.2 0.57,-0.12 1.08,-0.45 1.53,-1 0.46,-0.54 0.72,-1.35 0.79,-2.44zm-5.82 -5.87c0,2.34 0.68,3.64 2.04,3.9 1.36,0.25 2.37,-0.06 3.01,-0.94 0.3,-0.38 0.53,-0.97 0.67,-1.77 0.13,-0.79 0.14,-1.58 0.02,-2.37 -0.12,-0.78 -0.4,-1.47 -0.84,-2.09 -0.45,-0.61 -1.09,-0.92 -1.94,-0.92 -1.16,0 -1.94,0.43 -2.34,1.28 -0.41,0.85 -0.62,1.82 -0.62,2.91z"/>
  <path id="3" class="fil3" d="M57.1 13.06l3.46 0c0.04,0.68 0.29,1.18 0.77,1.52 0.51,0.34 1.19,0.51 2.04,0.51 0.61,0 1.14,-0.11 1.58,-0.35 0.41,-0.24 0.61,-0.57 0.61,-0.97 0,-0.61 -0.71,-1.07 -2.14,-1.38 -0.62,-0.1 -1.08,-0.2 -1.38,-0.3 -1.81,-0.44 -3.02,-0.97 -3.63,-1.58 -0.68,-0.61 -1.02,-1.43 -1.02,-2.45 0,-1.29 0.49,-2.36 1.48,-3.21 1.02,-0.78 2.35,-1.17 3.98,-1.17 1.77,0 3.18,0.39 4.23,1.18 0.99,0.85 1.52,1.95 1.58,3.31l-2.19 0c-0.64,0 -1.14,-0.29 -1.47,-0.87l0 0c-0.14,-0.14 -0.28,-0.28 -0.41,-0.41 -0.41,-0.31 -0.97,-0.47 -1.69,-0.47 -0.68,0 -1.19,0.1 -1.53,0.31 -0.3,0.2 -0.46,0.51 -0.46,0.92 0,0.55 0.89,1 2.66,1.38 0.2,0.07 0.39,0.12 0.54,0.15 0.15,0.03 0.29,0.05 0.43,0.05 1.74,0.44 2.94,0.95 3.63,1.53 0.65,0.62 0.97,1.43 0.97,2.45 0,1.5 -0.55,2.66 -1.64,3.48 -1.02,0.74 -2.55,1.12 -4.59,1.12 -1.94,0 -3.39,-0.39 -4.33,-1.18 -0.99,-0.78 -1.48,-1.92 -1.48,-3.42l0 -0.15z"/>
  <path id="4" class="fil3" d="M75.71 17.55c-1.12,0.07 -2.34,0.05 -3.65,-0.05 -1.31,-0.1 -1.96,-0.94 -1.96,-2.5l0 -15 1.84 0c0.44,0 0.83,0.17 1.17,0.51 0.34,0.34 0.51,0.74 0.51,1.22l0 2.29 2.09 0 0 0.72c0,0.51 -0.17,0.93 -0.51,1.25 -0.34,0.32 -0.75,0.49 -1.22,0.49l-0.36 0 0 7.54c0,0.58 0.34,0.86 1.02,0.86l1.07 0 0 2.67z"/>
  <path id="5" class="fil3" d="M83.86 10.73c-0.48,0.24 -1.14,0.46 -1.99,0.66 -0.79,0.17 -1.18,0.26 -1.18,0.26 -0.61,0.17 -1.05,0.39 -1.33,0.66 -0.24,0.38 -0.36,0.75 -0.36,1.12 0,0.51 0.16,0.92 0.47,1.23 0.3,0.27 0.74,0.41 1.32,0.41 0.96,0 1.71,-0.28 2.25,-0.82 0.55,-0.55 0.82,-1.29 0.82,-2.24l0 -1.28zm0.82 6.26c-0.72,0.37 -1.48,0.61 -2.28,0.69 -0.8,0.09 -1.5,0.13 -2.12,0.13 -1.22,0 -2.29,-0.33 -3.21,-1 -0.92,-0.66 -1.38,-1.76 -1.38,-3.29 0,-1.43 0.42,-2.45 1.25,-3.06 0.83,-0.62 1.9,-1.02 3.19,-1.23 0.17,0 0.38,-0.02 0.62,-0.07 0.23,-0.06 0.5,-0.1 0.81,-0.13 1.5,-0.2 2.25,-0.65 2.25,-1.33 0,-0.51 -0.27,-0.84 -0.79,-0.99 -0.53,-0.16 -1.01,-0.23 -1.46,-0.23 -0.47,0 -0.9,0.07 -1.27,0.2 -0.38,0.14 -0.65,0.41 -0.82,0.79l-3.41 0c0.13,-1.06 0.61,-1.93 1.43,-2.61 0.91,-0.79 2.22,-1.18 3.92,-1.18 1.91,0 3.33,0.32 4.29,0.97 0.99,0.68 1.48,1.63 1.48,2.86l0 4.64c0,1.36 -0.25,2.42 -0.74,3.19 -0.5,0.76 -1.09,1.31 -1.76,1.65z"/>
  <path id="6" class="fil3" d="M97.12 13.37l2.55 0c-0.38,1.43 -1.09,2.52 -2.14,3.26 -1.06,0.79 -2.38,1.18 -3.98,1.18 -1.94,0 -3.45,-0.63 -4.54,-1.89 -1.09,-1.22 -1.63,-2.97 -1.63,-5.25 0,-2.18 0.52,-3.88 1.58,-5.1 1.09,-1.26 2.6,-1.89 4.54,-1.89 2.04,0 3.62,0.62 4.74,1.84 0.61,0.75 1.05,1.61 1.32,2.6l-3.57 0c-0.17,-0.34 -0.33,-0.6 -0.5,-0.77 -0.45,-0.48 -1.08,-0.72 -1.89,-0.72 -0.75,0 -1.36,0.24 -1.84,0.72 -0.61,0.68 -0.91,1.8 -0.91,3.37 0,1.57 0.3,2.67 0.91,3.32 0.44,0.54 1.11,0.82 1.99,0.82 0.58,0 1.07,-0.12 1.48,-0.36 0.1,-0.03 0.19,-0.09 0.28,-0.18 0.08,-0.08 0.18,-0.18 0.28,-0.28 0.07,-0.1 0.2,-0.24 0.41,-0.41 0.2,-0.17 0.51,-0.26 0.92,-0.26z"/>
  <path id="7" class="fil3" d="M103.81 3.98l0 0 0 5 4.33 -5 4.28 0 -4.84 5.2 4.9 8.37 -4.29 0 -2.49 -4.59c-0.52,-0.92 -0.96,-1.31 -1.33,-1.17 -0.38,0.13 -0.56,0.33 -0.56,0.6l0 1.89 0 3.27 -3.58 0 0 -17.55 1.84 0c0.47,0 0.88,0.17 1.23,0.51 0.34,0.34 0.51,0.73 0.51,1.17l0 2.3z"/>
  <path class="fil2" d="M67.53 25.83l0.02 0.06c0,0.06 -0.04,0.09 -0.12,0.09l-0.36 0c-0.04,0 -0.07,-0.01 -0.09,-0.03 -0.02,-0.01 -0.04,-0.04 -0.05,-0.07l-0.57 -1.17 -3.02 0 -0.57 1.17c-0.02,0.06 -0.07,0.1 -0.14,0.1l-0.38 0c-0.07,0 -0.1,-0.03 -0.1,-0.09 0,-0.01 0.01,-0.03 0.02,-0.06l2.31 -4.71c0.02,-0.04 0.04,-0.06 0.06,-0.07 0.01,-0.02 0.04,-0.02 0.08,-0.02l0.45 0c0.03,0 0.06,0 0.09,0.02 0.02,0.01 0.04,0.03 0.06,0.07l2.31 4.71zm-2.66 -4.17l-0.04 0 -0.6 1.23 -0.62 1.28 2.48 0 -0.62 -1.28 -0.6 -1.23z"/>
  <path id="1" class="fil2" d="M70.99 26c-0.41,0 -0.72,-0.11 -0.93,-0.32 -0.21,-0.21 -0.31,-0.52 -0.31,-0.93l0 -2.5c0,-0.41 0.1,-0.72 0.31,-0.93 0.21,-0.21 0.52,-0.32 0.93,-0.32l2.35 0c0.41,0 0.72,0.11 0.93,0.32 0.21,0.21 0.31,0.52 0.31,0.93l0 0.3c0,0.06 -0.03,0.1 -0.1,0.1l-0.4 0c-0.06,0 -0.09,-0.04 -0.09,-0.1l0 -0.28c0,-0.25 -0.06,-0.44 -0.18,-0.55 -0.11,-0.12 -0.3,-0.18 -0.55,-0.18l-2.19 0c-0.25,0 -0.44,0.06 -0.56,0.18 -0.11,0.12 -0.17,0.3 -0.17,0.55l0 2.46c0,0.25 0.06,0.44 0.17,0.55 0.12,0.12 0.31,0.18 0.56,0.18l2.19 0c0.25,0 0.44,-0.06 0.55,-0.18 0.12,-0.11 0.18,-0.3 0.18,-0.55l0 -0.29c0,-0.06 0.03,-0.1 0.09,-0.1l0.4 0c0.07,0 0.1,0.04 0.1,0.1l0 0.31c0,0.41 -0.1,0.72 -0.31,0.93 -0.21,0.21 -0.52,0.32 -0.93,0.32l-2.35 0z"/>
  <path id="2" class="fil2" d="M82.1 25.83l0.02 0.06c0,0.06 -0.04,0.09 -0.12,0.09l-0.37 0c-0.03,0 -0.06,-0.01 -0.08,-0.03 -0.03,-0.01 -0.04,-0.04 -0.06,-0.07l-0.56 -1.17 -3.02 0 -0.57 1.17c-0.03,0.06 -0.08,0.1 -0.15,0.1l-0.37 0c-0.07,0 -0.1,-0.03 -0.1,-0.09 0,-0.01 0,-0.03 0.01,-0.06l2.32 -4.71c0.02,-0.04 0.03,-0.06 0.05,-0.07 0.02,-0.02 0.05,-0.02 0.09,-0.02l0.44 0c0.04,0 0.07,0 0.1,0.02 0.02,0.01 0.04,0.03 0.06,0.07l2.31 4.71zm-2.66 -4.17l-0.04 0 -0.6 1.23 -0.62 1.28 2.48 0 -0.62 -1.28 -0.6 -1.23z"/>
  <path id="3" class="fil2" d="M88 21.03c0.41,0 0.72,0.1 0.93,0.31 0.21,0.2 0.32,0.51 0.32,0.92l0 2.47c0,0.41 -0.11,0.72 -0.32,0.93 -0.21,0.21 -0.52,0.32 -0.93,0.32l-3.54 0c-0.06,0 -0.09,-0.03 -0.09,-0.1l0 -4.76c0,-0.06 0.03,-0.09 0.09,-0.09l3.54 0zm0.65 1.25c0,-0.25 -0.05,-0.43 -0.17,-0.55 -0.12,-0.11 -0.3,-0.17 -0.55,-0.17l-2.97 0 0 3.88 2.97 0c0.25,0 0.43,-0.06 0.55,-0.18 0.11,-0.12 0.17,-0.3 0.17,-0.55l0 -2.43z"/>
  <path id="4" class="fil2" d="M96.39 25.45c0.06,0 0.09,0.03 0.09,0.09l0 0.34c0,0.07 -0.03,0.1 -0.09,0.1l-4.01 0c-0.07,0 -0.1,-0.03 -0.1,-0.1l0 -4.76c0,-0.06 0.03,-0.09 0.1,-0.09l3.94 0c0.06,0 0.09,0.03 0.09,0.09l0 0.33c0,0.07 -0.03,0.1 -0.09,0.1l-3.44 0 0 1.67 2.65 0c0.07,0 0.1,0.03 0.1,0.09l0 0.34c0,0.06 -0.03,0.09 -0.1,0.09l-2.65 0 0 1.71 3.51 0z"/>
  <path id="5" class="fil2" d="M99.28 25.98c-0.06,0 -0.09,-0.03 -0.09,-0.1l0 -4.76c0,-0.06 0.03,-0.09 0.09,-0.09l0.51 0c0.08,0 0.13,0.02 0.16,0.08l2.21 4.1 0.04 0 2.2 -4.1c0.03,-0.06 0.09,-0.08 0.16,-0.08l0.51 0c0.06,0 0.09,0.03 0.09,0.09l0 4.76c0,0.07 -0.03,0.1 -0.09,0.1l-0.41 0c-0.06,0 -0.09,-0.03 -0.09,-0.1l0 -3.79 -0.03 0 -2.07 3.79c-0.04,0.06 -0.09,0.1 -0.15,0.1l-0.29 0c-0.04,0 -0.06,-0.01 -0.09,-0.03 -0.02,-0.01 -0.04,-0.04 -0.06,-0.07l-2.06 -3.79 -0.04 0 0 3.79c0,0.07 -0.03,0.1 -0.1,0.1l-0.4 0z"/>
  <path id="6" class="fil2" d="M109.71 25.98c-0.07,0 -0.1,-0.03 -0.1,-0.1l0 -1.94 -2.24 -2.76c-0.02,-0.02 -0.03,-0.05 -0.03,-0.08 0,-0.05 0.04,-0.07 0.11,-0.07l0.41 0c0.07,0 0.13,0.02 0.17,0.07l1.29 1.59 0.57 0.7 0.04 0 1.85 -2.29c0.03,-0.02 0.06,-0.04 0.08,-0.06 0.03,-0.01 0.06,-0.01 0.1,-0.01l0.41 0c0.07,0 0.1,0.02 0.1,0.07 0,0.02 -0.01,0.05 -0.03,0.08l-2.24 2.76 0 1.94c0,0.07 -0.03,0.1 -0.09,0.1l-0.4 0z"/>
 </g>
</svg>
